<svg xmlns="http://www.w3.org/2000/svg" width="13.035" height="15.067" viewBox="0 0 13.035 15.067">
  <g id="bell" transform="translate(-278.11 -647.975)">
    <path id="Path_27" data-name="Path 27" d="M290.3,661.829H278.951a.841.841,0,0,1-.6-1.435l.948-.948a1.245,1.245,0,0,0,.362-.877v-3.258c0-2.219,1.1-4.863,3.5-5.572v-.3a1.456,1.456,0,0,1,1.552-1.456,1.48,1.48,0,0,1,1.364,1.494v.267c2.4.711,3.5,3.354,3.5,5.572v3.258a1.246,1.246,0,0,0,.363.877l.947.948a.829.829,0,0,1,.247.594A.842.842,0,0,1,290.3,661.829Z" fill="#68737d"/>
    <path id="Path_28" data-name="Path 28" d="M284.627,663.042a1.378,1.378,0,0,0,.311-.031,1.533,1.533,0,0,0,1.238-1.526h-3.113A1.568,1.568,0,0,0,284.627,663.042Z" fill="#68737d" fill-rule="evenodd"/>
  </g>
</svg>
