<svg xmlns="http://www.w3.org/2000/svg" xmlns:xlink="http://www.w3.org/1999/xlink" width="223.964" height="78.975" viewBox="0 0 223.964 78.975">
  <defs>
    <linearGradient id="linear-gradient" x1="2.513" y1="-11.176" x2="2.513" y2="-10.244" gradientUnits="objectBoundingBox">
      <stop offset="0" stop-color="#34393e"/>
      <stop offset="1" stop-color="#17191b"/>
    </linearGradient>
    <linearGradient id="linear-gradient-2" x1="2.529" y1="-11.436" x2="2.529" y2="-10.504" gradientUnits="objectBoundingBox">
      <stop offset="0" stop-color="#34393e"/>
      <stop offset="1" stop-color="#17191c"/>
    </linearGradient>
    <linearGradient id="linear-gradient-3" x1="2.546" y1="-11.709" x2="2.546" y2="-10.777" gradientUnits="objectBoundingBox">
      <stop offset="0" stop-color="#353a3f"/>
      <stop offset="1" stop-color="#181a1c"/>
    </linearGradient>
    <linearGradient id="linear-gradient-4" x1="2.562" y1="-11.995" x2="2.562" y2="-11.063" gradientUnits="objectBoundingBox">
      <stop offset="0" stop-color="#353a3f"/>
      <stop offset="1" stop-color="#181a1d"/>
    </linearGradient>
    <linearGradient id="linear-gradient-5" x1="2.58" y1="-12.295" x2="2.58" y2="-11.363" gradientUnits="objectBoundingBox">
      <stop offset="0" stop-color="#353b40"/>
      <stop offset="1" stop-color="#191b1d"/>
    </linearGradient>
    <linearGradient id="linear-gradient-6" x1="2.597" y1="-12.61" x2="2.597" y2="-11.678" gradientUnits="objectBoundingBox">
      <stop offset="0" stop-color="#363b40"/>
      <stop offset="1" stop-color="#191b1e"/>
    </linearGradient>
    <linearGradient id="linear-gradient-7" x1="2.614" y1="-12.942" x2="2.614" y2="-12.01" gradientUnits="objectBoundingBox">
      <stop offset="0" stop-color="#363c41"/>
      <stop offset="1" stop-color="#1a1c1e"/>
    </linearGradient>
    <linearGradient id="linear-gradient-8" x1="2.632" y1="-13.292" x2="2.632" y2="-12.36" gradientUnits="objectBoundingBox">
      <stop offset="0" stop-color="#363c41"/>
      <stop offset="1" stop-color="#1a1c1f"/>
    </linearGradient>
    <linearGradient id="linear-gradient-9" x1="2.651" y1="-13.662" x2="2.651" y2="-12.73" gradientUnits="objectBoundingBox">
      <stop offset="0" stop-color="#373d42"/>
      <stop offset="1" stop-color="#1b1d20"/>
    </linearGradient>
    <linearGradient id="linear-gradient-10" x1="2.669" y1="-14.052" x2="2.669" y2="-13.12" xlink:href="#linear-gradient-9"/>
    <linearGradient id="linear-gradient-11" x1="2.688" y1="-14.465" x2="2.688" y2="-13.533" gradientUnits="objectBoundingBox">
      <stop offset="0" stop-color="#373e43"/>
      <stop offset="1" stop-color="#1c1e21"/>
    </linearGradient>
    <linearGradient id="linear-gradient-12" x1="2.707" y1="-14.903" x2="2.707" y2="-13.971" xlink:href="#linear-gradient-11"/>
    <linearGradient id="linear-gradient-13" x1="2.727" y1="-15.369" x2="2.727" y2="-14.437" gradientUnits="objectBoundingBox">
      <stop offset="0" stop-color="#383f44"/>
      <stop offset="1" stop-color="#1d1f22"/>
    </linearGradient>
    <linearGradient id="linear-gradient-14" x1="2.747" y1="-15.864" x2="2.747" y2="-14.932" gradientUnits="objectBoundingBox">
      <stop offset="0" stop-color="#383f44"/>
      <stop offset="1" stop-color="#1d1f23"/>
    </linearGradient>
    <linearGradient id="linear-gradient-15" x1="2.767" y1="-16.393" x2="2.767" y2="-15.461" gradientUnits="objectBoundingBox">
      <stop offset="0" stop-color="#384045"/>
      <stop offset="1" stop-color="#1e2023"/>
    </linearGradient>
    <linearGradient id="linear-gradient-16" x1="2.787" y1="-16.957" x2="2.787" y2="-16.025" gradientUnits="objectBoundingBox">
      <stop offset="0" stop-color="#394045"/>
      <stop offset="1" stop-color="#1e2024"/>
    </linearGradient>
    <linearGradient id="linear-gradient-17" x1="2.808" y1="-17.563" x2="2.808" y2="-16.63" gradientUnits="objectBoundingBox">
      <stop offset="0" stop-color="#394146"/>
      <stop offset="1" stop-color="#1f2124"/>
    </linearGradient>
    <linearGradient id="linear-gradient-18" x1="2.83" y1="-18.212" x2="2.83" y2="-17.28" gradientUnits="objectBoundingBox">
      <stop offset="0" stop-color="#394146"/>
      <stop offset="1" stop-color="#1f2125"/>
    </linearGradient>
    <linearGradient id="linear-gradient-19" x1="2.852" y1="-18.912" x2="2.852" y2="-17.98" gradientUnits="objectBoundingBox">
      <stop offset="0" stop-color="#3a4247"/>
      <stop offset="1" stop-color="#202225"/>
    </linearGradient>
    <linearGradient id="linear-gradient-20" x1="2.874" y1="-19.667" x2="2.874" y2="-18.735" gradientUnits="objectBoundingBox">
      <stop offset="0" stop-color="#3a4247"/>
      <stop offset="1" stop-color="#202226"/>
    </linearGradient>
  </defs>
  <g id="big_button_background" transform="translate(-466.227 -536.435)">
    <path id="Path_246" data-name="Path 246" d="M650.7,536.435a39.487,39.487,0,0,1,0,78.975H505.715a39.487,39.487,0,1,1,0-78.975Z" opacity="0" fill="url(#linear-gradient)"/>
    <path id="Path_247" data-name="Path 247" d="M505.45,537.33H650.97a38.4,38.4,0,0,1,35.02,22.956,40.325,40.325,0,0,1,3.306,15.9,38.369,38.369,0,0,1-38.326,38.326H505.45a38.4,38.4,0,0,1-35.021-22.956,40.325,40.325,0,0,1-3.306-15.9A38.369,38.369,0,0,1,505.45,537.33Z" opacity="0.053" fill="url(#linear-gradient-2)"/>
    <path id="Path_248" data-name="Path 248" d="M505.184,538.227H651.235a37.256,37.256,0,0,1,34.043,22.647,41.568,41.568,0,0,1,3.122,15.58,37.206,37.206,0,0,1-37.165,37.165H505.184a37.256,37.256,0,0,1-34.043-22.648,41.564,41.564,0,0,1-3.122-15.58A37.2,37.2,0,0,1,505.184,538.227Z" opacity="0.105" fill="url(#linear-gradient-3)"/>
    <path id="Path_249" data-name="Path 249" d="M504.918,539.122H651.5c14.987,0,27.554,9.4,33.065,22.34A43.028,43.028,0,0,1,687.5,576.72a36.041,36.041,0,0,1-36,36H504.918c-14.987,0-27.554-9.4-33.066-22.34a43.045,43.045,0,0,1-2.937-15.258A36.041,36.041,0,0,1,504.918,539.122Z" opacity="0.158" fill="url(#linear-gradient-4)"/>
    <path id="Path_250" data-name="Path 250" d="M504.652,540.018H651.767c14.652,0,26.8,9.342,32.087,22.033a44.706,44.706,0,0,1,2.754,14.934,34.877,34.877,0,0,1-34.841,34.842H504.652c-14.652,0-26.8-9.343-32.087-22.033a44.709,44.709,0,0,1-2.755-14.935A34.877,34.877,0,0,1,504.652,540.018Z" opacity="0.211" fill="url(#linear-gradient-5)"/>
    <path id="Path_251" data-name="Path 251" d="M504.387,540.913H652.032c14.318,0,26.053,9.283,31.111,21.726a46.745,46.745,0,0,1,2.57,14.612,33.714,33.714,0,0,1-33.681,33.681H504.387c-14.317,0-26.053-9.284-31.11-21.726a46.717,46.717,0,0,1-2.571-14.612A33.714,33.714,0,0,1,504.387,540.913Z" opacity="0.263" fill="url(#linear-gradient-6)"/>
    <path id="Path_252" data-name="Path 252" d="M504.121,541.809H652.3c13.981,0,25.3,9.22,30.132,21.418,1.37,3.458,2.387,10.336,2.387,14.29A32.55,32.55,0,0,1,652.3,610.036H504.121c-13.981,0-25.3-9.22-30.132-21.418-1.369-3.458-2.387-10.336-2.387-14.29A32.55,32.55,0,0,1,504.121,541.809Z" opacity="0.316" fill="url(#linear-gradient-7)"/>
    <path id="Path_253" data-name="Path 253" d="M503.855,542.705H652.563c13.647,0,24.548,9.153,29.155,21.11,1.234,3.2,2.2,10.317,2.2,13.967a31.386,31.386,0,0,1-31.358,31.358H503.855c-13.646,0-24.547-9.154-29.154-21.111-1.234-3.2-2.2-10.316-2.2-13.966A31.386,31.386,0,0,1,503.855,542.705Z" opacity="0.368" fill="url(#linear-gradient-8)"/>
    <path id="Path_254" data-name="Path 254" d="M503.59,543.6H652.829c13.311,0,23.793,9.084,28.177,20.8,1.1,2.948,2.019,10.3,2.019,13.645a30.221,30.221,0,0,1-30.2,30.2H503.59c-13.311,0-23.793-9.084-28.176-20.8-1.1-2.947-2.02-10.3-2.02-13.644A30.222,30.222,0,0,1,503.59,543.6Z" opacity="0.421" fill="url(#linear-gradient-9)"/>
    <path id="Path_255" data-name="Path 255" d="M503.324,544.5H653.095c12.975,0,23.037,9.012,27.2,20.5.975,2.69,1.836,10.28,1.836,13.322a29.059,29.059,0,0,1-29.035,29.035H503.324c-12.975,0-23.036-9.012-27.2-20.5-.974-2.689-1.835-10.28-1.835-13.322A29.058,29.058,0,0,1,503.324,544.5Z" opacity="0.474" fill="url(#linear-gradient-10)"/>
    <path id="Path_256" data-name="Path 256" d="M503.059,545.393h150.3c12.641,0,22.28,8.934,26.222,20.187.851,2.43,1.652,10.262,1.652,13a27.9,27.9,0,0,1-27.874,27.873h-150.3c-12.64,0-22.28-8.935-26.221-20.188-.851-2.43-1.653-10.262-1.653-13A27.894,27.894,0,0,1,503.059,545.393Z" opacity="0.526" fill="url(#linear-gradient-11)"/>
    <path id="Path_257" data-name="Path 257" d="M502.793,546.288H653.627c12.3,0,21.519,8.855,25.242,19.88.733,2.169,1.469,10.244,1.469,12.678a26.731,26.731,0,0,1-26.711,26.712H502.793c-12.3,0-21.521-8.856-25.243-19.881-.732-2.168-1.469-10.243-1.469-12.677A26.731,26.731,0,0,1,502.793,546.288Z" opacity="0.579" fill="url(#linear-gradient-12)"/>
    <path id="Path_258" data-name="Path 258" d="M502.527,547.184H653.893c11.968,0,20.759,8.769,24.264,19.573.618,1.9,1.285,10.224,1.285,12.354a25.566,25.566,0,0,1-25.549,25.55H502.527c-11.969,0-20.76-8.769-24.265-19.572-.618-1.9-1.285-10.226-1.285-12.355A25.566,25.566,0,0,1,502.527,547.184Z" opacity="0.632" fill="url(#linear-gradient-13)"/>
    <path id="Path_259" data-name="Path 259" d="M502.261,548.079h151.9c11.633,0,20,8.68,23.287,19.266.509,1.638,1.1,10.207,1.1,12.032a24.4,24.4,0,0,1-24.389,24.389h-151.9c-11.633,0-20-8.68-23.287-19.266-.509-1.639-1.1-10.207-1.1-12.032A24.4,24.4,0,0,1,502.261,548.079Z" opacity="0.684" fill="url(#linear-gradient-14)"/>
    <path id="Path_260" data-name="Path 260" d="M502,548.975H654.424c11.3,0,19.234,8.585,22.309,18.958.407,1.372.918,10.189.918,11.71a23.239,23.239,0,0,1-23.227,23.227H502c-11.3,0-19.235-8.585-22.31-18.958-.406-1.371-.918-10.188-.918-11.71A23.24,23.24,0,0,1,502,548.975Z" opacity="0.737" fill="url(#linear-gradient-15)"/>
    <path id="Path_261" data-name="Path 261" d="M501.73,549.871H654.689c10.963,0,18.47,8.483,21.332,18.651.31,1.1.735,10.169.735,11.386a22.076,22.076,0,0,1-22.067,22.067H501.73c-10.962,0-18.469-8.485-21.332-18.651-.31-1.1-.734-10.171-.734-11.388A22.075,22.075,0,0,1,501.73,549.871Z" opacity="0.789" fill="url(#linear-gradient-16)"/>
    <path id="Path_262" data-name="Path 262" d="M501.464,550.767H654.955c10.627,0,17.7,8.377,20.354,18.342.22.83.55,10.153.55,11.065a20.911,20.911,0,0,1-20.9,20.9H501.464c-10.627,0-17.7-8.378-20.354-18.344-.22-.829-.55-10.151-.55-11.064A20.911,20.911,0,0,1,501.464,550.767Z" opacity="0.842" fill="url(#linear-gradient-17)"/>
    <path id="Path_263" data-name="Path 263" d="M501.2,551.662H655.221A19.385,19.385,0,0,1,674.6,569.7c.236.522.367,10.134.367,10.743a19.748,19.748,0,0,1-19.743,19.743H501.2a19.385,19.385,0,0,1-19.376-18.036c-.236-.521-.367-10.133-.367-10.742A19.747,19.747,0,0,1,501.2,551.662Z" opacity="0.895" fill="url(#linear-gradient-18)"/>
    <path id="Path_264" data-name="Path 264" d="M500.933,552.558H655.486a18.389,18.389,0,0,1,18.4,17.728c.118.261.183,10.115.183,10.419a18.584,18.584,0,0,1-18.582,18.582H500.933a18.388,18.388,0,0,1-18.4-17.727c-.118-.261-.184-10.116-.184-10.42A18.584,18.584,0,0,1,500.933,552.558Z" opacity="0.947" fill="url(#linear-gradient-19)"/>
    <path id="Rectangle_69" data-name="Rectangle 69" d="M17.42,0H172.5a17.421,17.421,0,0,1,17.421,17.421v10.1A17.421,17.421,0,0,1,172.5,44.938H17.42A17.42,17.42,0,0,1,0,27.517V17.42A17.42,17.42,0,0,1,17.42,0Z" transform="translate(483.247 553.454)" fill="url(#linear-gradient-20)"/>
  </g>
</svg>
