<svg xmlns="http://www.w3.org/2000/svg" width="24.542" height="26.406" viewBox="0 0 24.542 26.406">
  <g id="guard" transform="translate(-839.46 -521.692)">
    <g id="Group_108" data-name="Group 108">
      <path id="Path_342" data-name="Path 342" d="M851.73,548.1a2.926,2.926,0,0,1-1.626-.5,20.043,20.043,0,0,1-5.985-6.228,33.162,33.162,0,0,1-4.658-14.591.448.448,0,0,1,.411-.48,2.337,2.337,0,0,0,2.147-2.311c0-.012-.014-.126-.015-.138a.447.447,0,0,1,.367-.468l9.279-1.688a.536.536,0,0,1,.16,0l9.28,1.688a.448.448,0,0,1,.367.466c0,.011-.01.1-.011.109l-.005.031a2.338,2.338,0,0,0,2.148,2.311.447.447,0,0,1,.411.48,33.149,33.149,0,0,1-4.657,14.591,20.028,20.028,0,0,1-5.987,6.228A2.922,2.922,0,0,1,851.73,548.1Zm-11.341-20.969a32.226,32.226,0,0,0,4.5,13.781,19.094,19.094,0,0,0,5.716,5.946,2.02,2.02,0,0,0,2.256,0,19.1,19.1,0,0,0,5.718-5.946,32.252,32.252,0,0,0,4.5-13.781,3.243,3.243,0,0,1-2.521-2.931l-8.822-1.6-8.821,1.6A3.244,3.244,0,0,1,840.389,527.129Z" fill="#fff"/>
    </g>
  </g>
</svg>
