<svg xmlns="http://www.w3.org/2000/svg" xmlns:xlink="http://www.w3.org/1999/xlink" width="24.037" height="32.022" viewBox="0 0 24.037 32.022">
  <defs>
    <linearGradient id="linear-gradient" x1="0.993" y1="0.5" x2="0.02" y2="0.5" gradientUnits="objectBoundingBox">
      <stop offset="0" stop-color="#434b52"/>
      <stop offset="1" stop-color="#202226"/>
    </linearGradient>
    <linearGradient id="linear-gradient-2" x1="0.976" y1="0.46" x2="0" y2="0.521" xlink:href="#linear-gradient"/>
    <linearGradient id="linear-gradient-3" x1="0.951" y1="0.423" x2="-0.018" y2="0.544" xlink:href="#linear-gradient"/>
    <linearGradient id="linear-gradient-4" x1="0.919" y1="0.388" x2="-0.035" y2="0.569" xlink:href="#linear-gradient"/>
    <linearGradient id="linear-gradient-5" x1="0.88" y1="0.356" x2="-0.049" y2="0.595" xlink:href="#linear-gradient"/>
    <linearGradient id="linear-gradient-6" x1="0.834" y1="0.328" x2="-0.06" y2="0.622" xlink:href="#linear-gradient"/>
    <linearGradient id="linear-gradient-7" x1="0.784" y1="0.305" x2="-0.068" y2="0.65" xlink:href="#linear-gradient"/>
    <linearGradient id="linear-gradient-8" x1="0.73" y1="0.288" x2="-0.073" y2="0.679" xlink:href="#linear-gradient"/>
    <linearGradient id="linear-gradient-9" x1="0.673" y1="0.277" x2="-0.076" y2="0.712" xlink:href="#linear-gradient"/>
    <linearGradient id="linear-gradient-10" x1="0.616" y1="0.273" x2="-0.073" y2="0.743" xlink:href="#linear-gradient"/>
    <linearGradient id="linear-gradient-11" x1="0.578" y1="0.274" x2="-0.055" y2="0.778" xlink:href="#linear-gradient"/>
    <linearGradient id="linear-gradient-12" x1="0.559" y1="0.275" x2="-0.021" y2="0.814" xlink:href="#linear-gradient"/>
    <linearGradient id="linear-gradient-13" x1="0.542" y1="0.278" x2="0.021" y2="0.844" xlink:href="#linear-gradient"/>
    <linearGradient id="linear-gradient-14" x1="0.528" y1="0.282" x2="0.07" y2="0.87" xlink:href="#linear-gradient"/>
    <linearGradient id="linear-gradient-15" x1="0.515" y1="0.287" x2="0.127" y2="0.888" xlink:href="#linear-gradient"/>
    <linearGradient id="linear-gradient-16" x1="0.507" y1="0.288" x2="0.19" y2="0.9" xlink:href="#linear-gradient"/>
    <linearGradient id="linear-gradient-17" x1="0.506" y1="0.281" x2="0.26" y2="0.901" xlink:href="#linear-gradient"/>
    <linearGradient id="linear-gradient-18" x1="0.504" y1="0.274" x2="0.336" y2="0.894" xlink:href="#linear-gradient"/>
    <linearGradient id="linear-gradient-19" x1="0.503" y1="0.266" x2="0.416" y2="0.879" xlink:href="#linear-gradient"/>
    <linearGradient id="linear-gradient-20" x1="0.5" y1="0.261" x2="0.5" y2="0.857" xlink:href="#linear-gradient"/>
  </defs>
  <g id="next_chart" transform="translate(-670.872 -640.309)">
    <path id="Path_103" data-name="Path 103" d="M678.907,672.331a8.042,8.042,0,0,1-8.035-8.03V648.339a8.028,8.028,0,0,1,13.7-5.681l7.985,7.986a8.03,8.03,0,0,1,0,11.353l-7.98,7.981A7.973,7.973,0,0,1,678.907,672.331Z" opacity="0" fill="url(#linear-gradient)"/>
    <path id="Path_104" data-name="Path 104" d="M671.24,648.339a7.537,7.537,0,0,1,1.934-4.994,7.832,7.832,0,0,1,11.349-.216l7.7,7.7a7.848,7.848,0,0,1,2.3,5.452,7.6,7.6,0,0,1-2.227,5.456l-7.77,7.771a7.834,7.834,0,0,1-11.333-.189,7.54,7.54,0,0,1-1.954-5.017V648.339Z" opacity="0.053" fill="url(#linear-gradient-2)"/>
    <path id="Path_105" data-name="Path 105" d="M671.608,648.339a7.082,7.082,0,0,1,1.924-4.757,7.682,7.682,0,0,1,5.669-2.287,7.81,7.81,0,0,1,5.273,2.3l7.413,7.414a7.731,7.731,0,0,1,2.254,5.228,7.237,7.237,0,0,1-2.1,5.234l-7.559,7.56a7.816,7.816,0,0,1-5.277,2.309,7.688,7.688,0,0,1-5.648-2.265,7.087,7.087,0,0,1-1.944-4.779V648.339Z" opacity="0.105" fill="url(#linear-gradient-3)"/>
    <path id="Path_106" data-name="Path 106" d="M671.977,648.339a6.621,6.621,0,0,1,1.914-4.52,7.55,7.55,0,0,1,5.457-2.031,7.751,7.751,0,0,1,5.075,2.282l7.128,7.129a7.622,7.622,0,0,1,2.2,5.005,6.855,6.855,0,0,1-1.98,5.011l-7.35,7.35a7.75,7.75,0,0,1-5.078,2.287,7.563,7.563,0,0,1-5.439-2.01,6.627,6.627,0,0,1-1.932-4.541V648.339Z" opacity="0.158" fill="url(#linear-gradient-4)"/>
    <path id="Path_107" data-name="Path 107" d="M672.346,648.339a6.167,6.167,0,0,1,1.9-4.283,7.455,7.455,0,0,1,5.246-1.775,7.7,7.7,0,0,1,4.878,2.26l6.843,6.844a7.528,7.528,0,0,1,2.156,4.781,6.483,6.483,0,0,1-1.856,4.788l-7.14,7.141a7.705,7.705,0,0,1-4.882,2.262,7.459,7.459,0,0,1-5.227-1.754,6.166,6.166,0,0,1-1.921-4.3V648.339Z" opacity="0.211" fill="url(#linear-gradient-5)"/>
    <path id="Path_108" data-name="Path 108" d="M672.714,648.338a5.714,5.714,0,0,1,1.893-4.045c1.194-1.162,3.241-1.519,5.035-1.519a7.673,7.673,0,0,1,4.68,2.238l6.558,6.557a7.452,7.452,0,0,1,2.108,4.559,6.109,6.109,0,0,1-1.733,4.566l-6.93,6.931a7.682,7.682,0,0,1-4.684,2.239c-1.785,0-3.826-.347-5.017-1.5a5.72,5.72,0,0,1-1.91-4.064V648.338Z" opacity="0.263" fill="url(#linear-gradient-6)"/>
    <path id="Path_109" data-name="Path 109" d="M673.082,648.338a5.261,5.261,0,0,1,1.884-3.808c1.136-1.051,3.157-1.262,4.822-1.262a7.671,7.671,0,0,1,4.484,2.214l6.272,6.273a7.386,7.386,0,0,1,2.059,4.335,5.733,5.733,0,0,1-1.609,4.344l-6.72,6.72a7.671,7.671,0,0,1-4.487,2.217c-1.656,0-3.673-.2-4.806-1.245a5.268,5.268,0,0,1-1.9-3.825V648.338Z" opacity="0.316" fill="url(#linear-gradient-7)"/>
    <path id="Path_110" data-name="Path 110" d="M673.451,648.338a4.819,4.819,0,0,1,1.873-3.57c1.076-.94,3.073-1.007,4.611-1.007,1.349,0,3.329,1.235,4.287,2.192l5.987,5.987a7.356,7.356,0,0,1,2.011,4.111,5.371,5.371,0,0,1-1.486,4.122l-6.509,6.511c-.96.958-2.94,2.194-4.29,2.194-1.53,0-3.523-.06-4.6-.99a4.832,4.832,0,0,1-1.888-3.587V648.338Z" opacity="0.368" fill="url(#linear-gradient-8)"/>
    <path id="Path_111" data-name="Path 111" d="M673.819,648.338A3.867,3.867,0,0,1,675.684,645c.853-.992,2.988-.75,4.4-.75,1.237,0,3.212,1.292,4.091,2.17l5.7,5.7a7.353,7.353,0,0,1,1.962,3.888,5,5,0,0,1-1.361,3.9l-6.3,6.3c-.879.879-2.855,2.172-4.093,2.172-1.4,0-3.531.248-4.385-.736a3.879,3.879,0,0,1-1.877-3.348V648.338Z" opacity="0.421" fill="url(#linear-gradient-9)"/>
    <path id="Path_112" data-name="Path 112" d="M674.187,648.338a3.449,3.449,0,0,1,1.855-3.1c.776-.9,2.905-.494,4.186-.494,1.124,0,3.094,1.35,3.893,2.148l5.416,5.415a7.388,7.388,0,0,1,1.914,3.665,4.631,4.631,0,0,1-1.238,3.676l-6.09,6.091c-.8.8-2.77,2.15-3.9,2.15-1.274,0-3.4.413-4.173-.481a3.46,3.46,0,0,1-1.867-3.11V648.338Z" opacity="0.474" fill="url(#linear-gradient-10)"/>
    <path id="Path_113" data-name="Path 113" d="M674.556,648.338a3.062,3.062,0,0,1,1.844-2.86c.7-.811,2.822-.238,3.975-.238,1.012,0,2.977,1.407,3.7,2.125L689.2,652.5a7.471,7.471,0,0,1,1.865,3.44,4.263,4.263,0,0,1-1.113,3.456l-5.881,5.88c-.719.718-2.684,2.126-3.7,2.126-1.147,0-3.265.58-3.963-.225a3.074,3.074,0,0,1-1.855-2.872V648.338Z" opacity="0.526" fill="url(#linear-gradient-11)"/>
    <path id="Path_114" data-name="Path 114" d="M674.925,648.338a2.7,2.7,0,0,1,1.834-2.623c.621-.721,2.737.018,3.762.018.9,0,2.861,1.464,3.5,2.1l4.845,4.846a7.626,7.626,0,0,1,1.818,3.216,3.906,3.906,0,0,1-.991,3.233l-5.67,5.67c-.639.639-2.6,2.1-3.5,2.1-1.019,0-3.132.744-3.752.03a2.715,2.715,0,0,1-1.844-2.634V648.338Z" opacity="0.579" fill="url(#linear-gradient-12)"/>
    <path id="Path_115" data-name="Path 115" d="M675.293,648.338a2.376,2.376,0,0,1,1.824-2.386c.544-.631,2.654.275,3.551.275.787,0,2.743,1.521,3.3,2.08l4.56,4.56a7.929,7.929,0,0,1,1.768,2.992,3.541,3.541,0,0,1-.866,3.011l-5.46,5.461c-.56.559-2.516,2.081-3.3,2.081-.893,0-3,.91-3.542.284a2.386,2.386,0,0,1-1.833-2.395V648.338Z" opacity="0.632" fill="url(#linear-gradient-13)"/>
    <path id="Path_116" data-name="Path 116" d="M675.661,648.338a2.081,2.081,0,0,1,1.815-2.148c.465-.542,2.57.53,3.338.53.675,0,2.626,1.579,3.106,2.057l4.274,4.275a8.366,8.366,0,0,1,1.72,2.769,3.184,3.184,0,0,1-.743,2.788l-5.25,5.251c-.48.48-2.431,2.059-3.107,2.059-.764,0-2.866,1.075-3.331.539a2.092,2.092,0,0,1-1.822-2.157V648.338Z" opacity="0.684" fill="url(#linear-gradient-14)"/>
    <path id="Path_117" data-name="Path 117" d="M676.029,648.338a1.824,1.824,0,0,1,1.806-1.912c.388-.45,2.486.787,3.126.787.562,0,2.509,1.636,2.908,2.035l3.989,3.989a9.081,9.081,0,0,1,1.671,2.546,2.835,2.835,0,0,1-.618,2.566l-5.041,5.041c-.4.4-2.346,2.036-2.909,2.036-.637,0-2.733,1.24-3.12.794a1.832,1.832,0,0,1-1.812-1.919V648.338Z" opacity="0.737" fill="url(#linear-gradient-15)"/>
    <path id="Path_118" data-name="Path 118" d="M676.4,648.338a1.6,1.6,0,0,1,1.795-1.675c.311-.36,2.4,1.043,2.915,1.043.45,0,2.392,1.693,2.711,2.013l3.7,3.7a7.978,7.978,0,0,1,1.623,2.322,2.171,2.171,0,0,1-.495,2.344l-4.83,4.83c-.32.319-2.261,2.014-2.712,2.014-.509,0-2.6,1.406-2.911,1.048a1.6,1.6,0,0,1-1.8-1.68V648.338Z" opacity="0.789" fill="url(#linear-gradient-16)"/>
    <path id="Path_119" data-name="Path 119" d="M676.767,648.338a1.408,1.408,0,0,1,1.785-1.438c.232-.27,2.318,1.3,2.7,1.3a13.846,13.846,0,0,1,2.514,1.991l3.418,3.417a9.2,9.2,0,0,1,1.574,2.1,1.851,1.851,0,0,1-.371,2.121l-4.621,4.62a13.772,13.772,0,0,1-2.514,1.992c-.383,0-2.467,1.571-2.7,1.3a1.411,1.411,0,0,1-1.788-1.441V648.338Z" opacity="0.842" fill="url(#linear-gradient-17)"/>
    <path id="Path_120" data-name="Path 120" d="M677.135,648.338a1.251,1.251,0,0,1,1.775-1.2c.155-.18,2.235,1.555,2.491,1.555a18.9,18.9,0,0,1,2.318,1.968l3.133,3.133a11.834,11.834,0,0,1,1.525,1.876,1.553,1.553,0,0,1-.248,1.9l-4.41,4.411a18.741,18.741,0,0,1-2.318,1.968c-.255,0-2.334,1.737-2.489,1.558a1.253,1.253,0,0,1-1.777-1.2V648.338Z" opacity="0.895" fill="url(#linear-gradient-18)"/>
    <path id="Path_121" data-name="Path 121" d="M677.5,648.338a1.125,1.125,0,0,1,1.765-.964c.078-.09,2.151,1.811,2.279,1.811.112,0,2.04,1.866,2.12,1.946l2.848,2.847a20.226,20.226,0,0,1,1.476,1.653,1.277,1.277,0,0,1-.123,1.676l-4.2,4.2c-.079.079-2.007,1.945-2.12,1.945s-2.2,1.9-2.279,1.813a1.125,1.125,0,0,1-1.765-.965V648.338Z" opacity="0.947" fill="url(#linear-gradient-19)"/>
    <path id="Path_122" data-name="Path 122" d="M677.872,664.3V648.338a1.028,1.028,0,0,1,1.755-.727l3.991,3.991,3.99,3.99a1.028,1.028,0,0,1,0,1.455l-3.99,3.99-3.991,3.99A1.028,1.028,0,0,1,677.872,664.3Z" fill="url(#linear-gradient-20)"/>
  </g>
</svg>
