<svg xmlns="http://www.w3.org/2000/svg" xmlns:xlink="http://www.w3.org/1999/xlink" width="24.037" height="32.022" viewBox="0 0 24.037 32.022">
  <defs>
    <linearGradient id="linear-gradient" x1="67.149" y1="0.5" x2="66.176" y2="0.5" gradientUnits="objectBoundingBox">
      <stop offset="0" stop-color="#434b52"/>
      <stop offset="1" stop-color="#202226"/>
    </linearGradient>
    <linearGradient id="linear-gradient-2" x1="69.267" y1="0.46" x2="68.292" y2="0.521" xlink:href="#linear-gradient"/>
    <linearGradient id="linear-gradient-3" x1="71.526" y1="0.422" x2="70.557" y2="0.545" xlink:href="#linear-gradient"/>
    <linearGradient id="linear-gradient-4" x1="73.929" y1="0.387" x2="72.976" y2="0.572" xlink:href="#linear-gradient"/>
    <linearGradient id="linear-gradient-5" x1="76.498" y1="0.354" x2="75.569" y2="0.6" xlink:href="#linear-gradient"/>
    <linearGradient id="linear-gradient-6" x1="79.258" y1="0.324" x2="78.364" y2="0.629" xlink:href="#linear-gradient"/>
    <linearGradient id="linear-gradient-7" x1="82.215" y1="0.297" x2="81.364" y2="0.659" xlink:href="#linear-gradient"/>
    <linearGradient id="linear-gradient-8" x1="85.415" y1="0.275" x2="84.611" y2="0.69" xlink:href="#linear-gradient"/>
    <linearGradient id="linear-gradient-9" x1="88.869" y1="0.263" x2="88.123" y2="0.723" xlink:href="#linear-gradient"/>
    <linearGradient id="linear-gradient-10" x1="92.627" y1="0.262" x2="91.945" y2="0.755" xlink:href="#linear-gradient"/>
    <linearGradient id="linear-gradient-11" x1="96.732" y1="0.263" x2="96.108" y2="0.789" xlink:href="#linear-gradient"/>
    <linearGradient id="linear-gradient-12" x1="101.235" y1="0.266" x2="100.668" y2="0.823" xlink:href="#linear-gradient"/>
    <linearGradient id="linear-gradient-13" x1="106.175" y1="0.274" x2="105.669" y2="0.853" xlink:href="#linear-gradient"/>
    <linearGradient id="linear-gradient-14" x1="111.606" y1="0.286" x2="111.167" y2="0.877" xlink:href="#linear-gradient"/>
    <linearGradient id="linear-gradient-15" x1="117.071" y1="0.303" x2="116.704" y2="0.897" xlink:href="#linear-gradient"/>
    <linearGradient id="linear-gradient-16" x1="123.638" y1="0.293" x2="123.331" y2="0.906" xlink:href="#linear-gradient"/>
    <linearGradient id="linear-gradient-17" x1="130.98" y1="0.285" x2="130.741" y2="0.904" xlink:href="#linear-gradient"/>
    <linearGradient id="linear-gradient-18" x1="139.205" y1="0.275" x2="139.04" y2="0.895" xlink:href="#linear-gradient"/>
    <linearGradient id="linear-gradient-19" x1="148.501" y1="0.267" x2="148.415" y2="0.879" xlink:href="#linear-gradient"/>
    <linearGradient id="linear-gradient-20" x1="158.921" y1="0.261" x2="158.921" y2="0.857" xlink:href="#linear-gradient"/>
  </defs>
  <g id="prev_chart" transform="translate(-461.51 -640.309)">
    <path id="Path_123" data-name="Path 123" d="M477.512,672.331a8.042,8.042,0,0,0,8.035-8.03V648.339a8.028,8.028,0,0,0-13.7-5.681l-7.984,7.986a8.027,8.027,0,0,0,0,11.353l7.979,7.981A7.975,7.975,0,0,0,477.512,672.331Z" opacity="0" fill="url(#linear-gradient)"/>
    <path id="Path_124" data-name="Path 124" d="M477.263,640.9a7.787,7.787,0,0,0-5.439,2.3l-7.693,7.7a8.025,8.025,0,0,0-.586.654,7.577,7.577,0,0,0-1.651,4.809,7.794,7.794,0,0,0,2.284,5.434l7.658,7.66a7.735,7.735,0,0,0,5.428,2.285,7.876,7.876,0,0,0,6.967-3.9,7.4,7.4,0,0,0,.948-3.539V648.339a7.39,7.39,0,0,0-.948-3.539A7.877,7.877,0,0,0,477.263,640.9Z" opacity="0.053" fill="url(#linear-gradient-2)"/>
    <path id="Path_125" data-name="Path 125" d="M477.016,641.5a7.606,7.606,0,0,0-5.212,2.244l-7.4,7.4a7.562,7.562,0,0,0-.564.627,7.18,7.18,0,0,0-1.559,4.624,7.607,7.607,0,0,0,2.214,5.19l7.338,7.34a7.5,7.5,0,0,0,5.185,2.216,7.75,7.75,0,0,0,6.8-3.458,6.8,6.8,0,0,0,.992-3.383V648.339a6.8,6.8,0,0,0-.992-3.383A7.752,7.752,0,0,0,477.016,641.5Z" opacity="0.105" fill="url(#linear-gradient-3)"/>
    <path id="Path_126" data-name="Path 126" d="M476.768,642.092a7.428,7.428,0,0,0-4.985,2.191l-7.111,7.112a8.09,8.09,0,0,0-.542.6,6.822,6.822,0,0,0-1.467,4.437,7.437,7.437,0,0,0,2.146,4.947l7.018,7.018a7.264,7.264,0,0,0,4.941,2.149c2.609,0,5.363-.936,6.637-3.021a6.217,6.217,0,0,0,1.037-3.226V648.339a6.212,6.212,0,0,0-1.037-3.227C482.131,643.026,479.377,642.092,476.768,642.092Z" opacity="0.158" fill="url(#linear-gradient-4)"/>
    <path id="Path_127" data-name="Path 127" d="M476.519,642.685a7.265,7.265,0,0,0-4.757,2.14l-6.819,6.82a7.623,7.623,0,0,0-.52.577,6.442,6.442,0,0,0-1.376,4.25,7.278,7.278,0,0,0,2.078,4.7l6.7,6.7a7.043,7.043,0,0,0,4.7,2.08c2.446,0,5.22-.664,6.472-2.582a5.646,5.646,0,0,0,1.082-3.07V648.339a5.65,5.65,0,0,0-1.082-3.071C481.74,643.35,478.966,642.685,476.519,642.685Z" opacity="0.211" fill="url(#linear-gradient-5)"/>
    <path id="Path_128" data-name="Path 128" d="M476.271,643.28a7.105,7.105,0,0,0-4.53,2.087l-6.528,6.529c-.159.159-.358.377-.5.55a6.061,6.061,0,0,0-1.283,4.065,7.111,7.111,0,0,0,2.008,4.46l6.377,6.377a6.825,6.825,0,0,0,4.455,2.01c2.283,0,5.077-.394,6.306-2.143A5.09,5.09,0,0,0,483.7,664.3V648.338a5.087,5.087,0,0,0-1.127-2.914C481.349,643.675,478.555,643.28,476.271,643.28Z" opacity="0.263" fill="url(#linear-gradient-6)"/>
    <path id="Path_129" data-name="Path 129" d="M476.024,643.875a6.963,6.963,0,0,0-4.3,2.033l-6.237,6.238c-.148.148-.346.365-.476.525a5.688,5.688,0,0,0-1.193,3.878,6.98,6.98,0,0,0,1.941,4.217l6.056,6.055a6.607,6.607,0,0,0,4.212,1.943c2.12,0,4.935-.129,6.141-1.7a4.558,4.558,0,0,0,1.172-2.758V648.338a4.558,4.558,0,0,0-1.172-2.758C480.959,644,478.144,643.875,476.024,643.875Z" opacity="0.316" fill="url(#linear-gradient-7)"/>
    <path id="Path_130" data-name="Path 130" d="M475.776,644.469a6.826,6.826,0,0,0-4.076,1.981l-5.945,5.947c-.137.136-.334.351-.455.5a5.313,5.313,0,0,0-1.1,3.691,6.833,6.833,0,0,0,1.872,3.973l5.735,5.736a6.408,6.408,0,0,0,3.969,1.874c1.957,0,5.129.357,5.975-1.268a3.364,3.364,0,0,0,1.217-2.6V648.338a3.364,3.364,0,0,0-1.217-2.6C480.9,644.111,477.733,644.469,475.776,644.469Z" opacity="0.368" fill="url(#linear-gradient-8)"/>
    <path id="Path_131" data-name="Path 131" d="M475.528,645.064a6.717,6.717,0,0,0-3.849,1.928l-5.654,5.655c-.125.125-.321.338-.432.473a4.94,4.94,0,0,0-1.009,3.505,6.727,6.727,0,0,0,1.8,3.729l5.414,5.416a6.215,6.215,0,0,0,3.727,1.8c1.793,0,5.033.66,5.809-.829A2.938,2.938,0,0,0,482.6,664.3V648.338a2.938,2.938,0,0,0-1.262-2.445C480.562,644.4,477.322,645.064,475.528,645.064Z" opacity="0.421" fill="url(#linear-gradient-9)"/>
    <path id="Path_132" data-name="Path 132" d="M475.28,645.657a6.625,6.625,0,0,0-3.622,1.877L466.3,652.9c-.114.114-.31.326-.41.448a4.573,4.573,0,0,0-.918,3.318,6.635,6.635,0,0,0,1.736,3.486l5.093,5.1a6.031,6.031,0,0,0,3.484,1.737c1.63,0,4.939.963,5.644-.391a2.569,2.569,0,0,0,1.306-2.289V648.338a2.567,2.567,0,0,0-1.306-2.289C480.22,644.694,476.911,645.657,475.28,645.657Z" opacity="0.474" fill="url(#linear-gradient-10)"/>
    <path id="Path_133" data-name="Path 133" d="M475.032,646.252a6.556,6.556,0,0,0-3.394,1.824l-5.072,5.071c-.1.1-.3.312-.388.423a4.211,4.211,0,0,0-.826,3.132,6.6,6.6,0,0,0,1.667,3.242l4.773,4.774a5.876,5.876,0,0,0,3.241,1.669c1.467,0,4.844,1.265,5.479.047a2.253,2.253,0,0,0,1.351-2.133V648.338a2.253,2.253,0,0,0-1.351-2.133C479.877,644.986,476.5,646.252,475.032,646.252Z" opacity="0.526" fill="url(#linear-gradient-11)"/>
    <path id="Path_134" data-name="Path 134" d="M474.784,646.847a6.543,6.543,0,0,0-3.167,1.77l-4.78,4.781c-.091.091-.285.3-.366.4a3.843,3.843,0,0,0-.734,2.945,6.582,6.582,0,0,0,1.6,3l4.453,4.453a5.727,5.727,0,0,0,3,1.6c1.3,0,4.749,1.568,5.314.485a1.978,1.978,0,0,0,1.4-1.976V648.338a1.98,1.98,0,0,0-1.4-1.977C479.534,645.278,476.089,646.847,474.784,646.847Z" opacity="0.579" fill="url(#linear-gradient-12)"/>
    <path id="Path_135" data-name="Path 135" d="M474.537,647.44c-.788,0-2.382,1.162-2.941,1.719l-4.489,4.489c-.08.08-.273.286-.344.372a3.488,3.488,0,0,0-.642,2.758,6.636,6.636,0,0,0,1.53,2.755l4.132,4.133a5.629,5.629,0,0,0,2.754,1.531c1.141,0,4.654,1.872,5.148.924a1.751,1.751,0,0,0,1.441-1.82V648.338a1.751,1.751,0,0,0-1.441-1.82C479.191,645.569,475.678,647.44,474.537,647.44Z" opacity="0.632" fill="url(#linear-gradient-13)"/>
    <path id="Path_136" data-name="Path 136" d="M474.289,648.035a6.73,6.73,0,0,0-2.714,1.666l-4.2,4.2c-.068.069-.261.273-.322.346a3.14,3.14,0,0,0-.551,2.572,6.794,6.794,0,0,0,1.462,2.512l3.811,3.812a5.587,5.587,0,0,0,2.511,1.463c.978,0,4.56,2.174,4.982,1.362a1.563,1.563,0,0,0,1.487-1.664V648.338a1.563,1.563,0,0,0-1.487-1.664C478.849,645.861,475.267,648.035,474.289,648.035Z" opacity="0.684" fill="url(#linear-gradient-14)"/>
    <path id="Path_137" data-name="Path 137" d="M474.04,648.63a6.986,6.986,0,0,0-2.485,1.613l-3.907,3.906c-.056.057-.249.259-.3.32a2.413,2.413,0,0,0-.458,2.386,5.614,5.614,0,0,0,1.392,2.268l3.491,3.491a5.624,5.624,0,0,0,2.268,1.395c.815,0,4.465,2.476,4.817,1.8.629.185,1.531-.483,1.531-1.508V648.338c0-1.025-.9-1.693-1.531-1.508C478.506,646.152,474.856,648.63,474.04,648.63Z" opacity="0.737" fill="url(#linear-gradient-15)"/>
    <path id="Path_138" data-name="Path 138" d="M473.793,649.224a7.52,7.52,0,0,0-2.259,1.561l-3.615,3.614c-.046.046-.237.246-.278.294a2.1,2.1,0,0,0-.367,2.2,5.81,5.81,0,0,0,1.324,2.024l3.17,3.17a5.838,5.838,0,0,0,2.025,1.326c.652,0,4.37,2.78,4.652,2.238.633.279,1.576-.348,1.576-1.351V648.338c0-1-.943-1.63-1.576-1.352C478.163,646.444,474.445,649.224,473.793,649.224Z" opacity="0.789" fill="url(#linear-gradient-16)"/>
    <path id="Path_139" data-name="Path 139" d="M473.545,649.818a8.6,8.6,0,0,0-2.032,1.508l-3.324,3.324c-.034.035-.225.232-.256.268a1.807,1.807,0,0,0-.275,2.014,6.285,6.285,0,0,0,1.256,1.781l2.85,2.85a6.321,6.321,0,0,0,1.781,1.257c.489,0,4.275,3.082,4.487,2.676a1.191,1.191,0,0,0,1.62-1.195V648.338a1.19,1.19,0,0,0-1.62-1.2C477.82,646.736,474.034,649.818,473.545,649.818Z" opacity="0.842" fill="url(#linear-gradient-17)"/>
    <path id="Path_140" data-name="Path 140" d="M473.3,650.413a10.914,10.914,0,0,0-1.8,1.455L468.46,654.9c-.023.024-.213.219-.234.243a1.532,1.532,0,0,0-.184,1.827,7.625,7.625,0,0,0,1.187,1.538l2.53,2.528a7.581,7.581,0,0,0,1.538,1.19c.326,0,4.18,3.384,4.322,3.114a1.118,1.118,0,0,0,1.665-1.039V648.338a1.118,1.118,0,0,0-1.665-1.039C477.477,647.027,473.623,650.413,473.3,650.413Z" opacity="0.895" fill="url(#linear-gradient-18)"/>
    <path id="Path_141" data-name="Path 141" d="M473.049,651.007a18.051,18.051,0,0,0-1.577,1.4l-2.741,2.741c-.012.011-.2.2-.213.216a1.28,1.28,0,0,0-.092,1.641,11.911,11.911,0,0,0,1.119,1.294l2.209,2.209a11.927,11.927,0,0,0,1.3,1.12c.163,0,4.086,3.688,4.156,3.553a1.065,1.065,0,0,0,1.71-.883V648.338a1.064,1.064,0,0,0-1.71-.883C477.135,647.319,473.212,651.007,473.049,651.007Z" opacity="0.947" fill="url(#linear-gradient-19)"/>
    <path id="Path_142" data-name="Path 142" d="M478.547,664.3V648.338a1.028,1.028,0,0,0-1.755-.727L472.8,651.6l-3.991,3.99a1.03,1.03,0,0,0,0,1.455l3.991,3.99,3.991,3.99A1.028,1.028,0,0,0,478.547,664.3Z" fill="url(#linear-gradient-20)"/>
  </g>
</svg>
