<svg xmlns="http://www.w3.org/2000/svg" width="15.75" height="15.066" viewBox="0 0 15.75 15.066">
  <path id="star" d="M117.758,648.47l1.747,3.539a.886.886,0,0,0,.668.485l3.906.567a.886.886,0,0,1,.491,1.512l-2.826,2.755a.888.888,0,0,0-.256.785l.668,3.89a.887.887,0,0,1-1.286.935l-3.494-1.837a.891.891,0,0,0-.825,0l-3.494,1.837a.887.887,0,0,1-1.286-.935l.667-3.89a.884.884,0,0,0-.254-.785l-2.827-2.755a.886.886,0,0,1,.491-1.512l3.906-.567a.888.888,0,0,0,.668-.485l1.746-3.539A.886.886,0,0,1,117.758,648.47Z" transform="translate(-109.088 -647.975)" fill="#68737d"/>
</svg>
