<svg xmlns="http://www.w3.org/2000/svg" width="15.071" height="15.066" viewBox="0 0 15.071 15.066">
  <g id="settings" transform="translate(-325.016 -647.976)">
    <path id="Path_29" data-name="Path 29" d="M334.652,653.405a2.921,2.921,0,0,0-2.1-.871,3.207,3.207,0,0,0-.588.053,2.977,2.977,0,1,0,1.17,5.838,2.87,2.87,0,0,0,1.516-.813,2.933,2.933,0,0,0,.819-1.521A2.966,2.966,0,0,0,334.652,653.405Zm0,0a2.921,2.921,0,0,0-2.1-.871,3.207,3.207,0,0,0-.588.053,2.977,2.977,0,1,0,1.17,5.838,2.87,2.87,0,0,0,1.516-.813,2.933,2.933,0,0,0,.819-1.521A2.966,2.966,0,0,0,334.652,653.405Zm4.826.587-1.285-.493a.415.415,0,0,1-.23-.56l.561-1.254a.951.951,0,0,0-.2-1.055l-.9-.9a.942.942,0,0,0-1.05-.193l-1.254.556a.4.4,0,0,1-.335.005.41.41,0,0,1-.231-.236l-.488-1.28a.953.953,0,0,0-.886-.608h-1.265a.948.948,0,0,0-.886.608l-.488,1.28a.427.427,0,0,1-.567.231l-1.253-.556a.952.952,0,0,0-1.055.193l-.9.9a.957.957,0,0,0-.194,1.055l.561,1.254a.424.424,0,0,1,0,.33.417.417,0,0,1-.241.23l-1.28.493a.95.95,0,0,0-.608.882v1.27a.948.948,0,0,0,.608.88l1.28.494a.419.419,0,0,1,.241.23.427.427,0,0,1,0,.331l-.561,1.254a.96.96,0,0,0,.194,1.055l.9.9a.95.95,0,0,0,1.055.194l1.253-.561a.427.427,0,0,1,.331,0,.4.4,0,0,1,.236.236l.488,1.28a.949.949,0,0,0,.886.609h1.265a.954.954,0,0,0,.886-.609l.488-1.28a.41.41,0,0,1,.231-.236.416.416,0,0,1,.335,0l1.249.561a.956.956,0,0,0,1.055-.194l.9-.9a.954.954,0,0,0,.2-1.055l-.561-1.254a.416.416,0,0,1,.23-.561l1.285-.494a.948.948,0,0,0,.609-.88v-1.27A.949.949,0,0,0,339.478,653.992Zm-3.493,2.2a3.521,3.521,0,0,1-2.754,2.754,3.85,3.85,0,0,1-.688.064,3.5,3.5,0,0,1-3.425-4.182,3.5,3.5,0,0,1,5.907-1.794A3.474,3.474,0,0,1,335.985,656.19Zm-3.431-3.656a3.207,3.207,0,0,0-.588.053,2.977,2.977,0,1,0,1.17,5.838,2.87,2.87,0,0,0,1.516-.813,2.933,2.933,0,0,0,.819-1.521,2.966,2.966,0,0,0-.819-2.686A2.921,2.921,0,0,0,332.554,652.534Z" fill="#68737d"/>
  </g>
</svg>
