<svg xmlns="http://www.w3.org/2000/svg" width="26.539" height="21.283" viewBox="0 0 26.539 21.283">
  <g id="wallet" transform="translate(-838.461 -610.18)">
    <path id="Path_381" data-name="Path 381" d="M862.5,631.463H841.034a2.5,2.5,0,0,1-2.5-2.5l-.074-16.281a2.5,2.5,0,0,1,2.5-2.5h20.414a2.234,2.234,0,0,1,2.23,2.231v.471H841.162v1.735l21.338-.034a2.5,2.5,0,0,1,2.5,2.5v11.88A2.5,2.5,0,0,1,862.5,631.463Zm-21.538-20.342a1.561,1.561,0,0,0-1.56,1.56l.074,16.281a1.56,1.56,0,0,0,1.558,1.56H862.5a1.561,1.561,0,0,0,1.56-1.559v-11.88a1.562,1.562,0,0,0-1.559-1.56l-22.279.037v-2.879a.741.741,0,0,1,.74-.741h21.615a1.293,1.293,0,0,0-1.2-.819Zm19.607,14.5a3.037,3.037,0,1,1,3.037-3.037A3.041,3.041,0,0,1,860.569,625.619Zm0-5.134a2.1,2.1,0,1,0,2.1,2.1A2.1,2.1,0,0,0,860.569,620.485Z" fill="#fff"/>
  </g>
</svg>
